<?xml version="1.0" standalone="no"?>
<!DOCTYPE svg PUBLIC "-//W3C//DTD SVG 1.1//EN" "http://www.w3.org/Graphics/SVG/1.1/DTD/svg11.dtd" >
<svg xmlns="http://www.w3.org/2000/svg">
<metadata></metadata>
<defs>
<font id="premier_leagueregular" horiz-adv-x="1024" >
<font-face units-per-em="2048" ascent="1638" descent="-410" />
<missing-glyph horiz-adv-x="512" />
<glyph horiz-adv-x="2048" />
<glyph horiz-adv-x="2048" />
<glyph unicode="&#xd;" horiz-adv-x="512" />
<glyph unicode=" "  horiz-adv-x="512" />
<glyph unicode="&#x09;" horiz-adv-x="512" />
<glyph unicode="&#xa0;" horiz-adv-x="512" />
<glyph unicode="!" horiz-adv-x="692" d="M92 1495h426l-49 -1096h-252l-43 881q-8 170 -82 215zM209 0v262h262v-262h-262z" />
<glyph unicode="&#x22;" horiz-adv-x="798" d="M102 1505h246q0 -335 -57 -497h-131q-57 162 -58 497zM451 1505h245q0 -335 -57 -497h-131q-57 162 -57 497z" />
<glyph unicode="#" horiz-adv-x="1632" d="M102 457l48 161h339l78 261h-340l49 159h338l93 312h165l-90 -312h271l92 312h168l-92 -312h309l-47 -159h-309l-76 -261h307l-47 -161h-309l-91 -312h-167l92 312h-273l-92 -312h-168l92 312h-340zM657 618h273l76 261h-273z" />
<glyph unicode="$" horiz-adv-x="1036" d="M82 279q113 -43 326 -43q256 0 256 186q0 98 -80 153q-37 29 -176 84q-150 59 -213 127q-100 106 -101 295q0 152 88 259.5t246 148.5v33q0 135 -57 174h264v-185q96 0 256 -34v-250q-152 47 -279 47q-231 0 -231 -172q0 -86 72 -141q41 -33 163 -82q162 -66 228 -129 q111 -106 110 -295q1 -339 -321 -437v-237h-260q55 55 55 174v33h-29q-156 0 -204 24z" />
<glyph unicode="%" horiz-adv-x="2009" d="M82 1051q0 197 113 326.5t297 129.5q182 0 285.5 -120.5t103.5 -311.5q0 -219 -123 -346q-113 -119 -279 -119q-170 0 -280 119q-117 123 -117 322zM336 1057q0 -117 39 -189.5t110 -72.5q143 0 144 264q-1 262 -146 262q-72 0 -109.5 -73.5t-37.5 -190.5zM494 0 l837 1495h180l-833 -1495h-184zM1128 426q0 199 113 328t295 129t286.5 -121t104.5 -311q0 -217 -123 -347q-111 -117 -278 -116q-170 0 -281 116q-117 123 -117 322zM1384 434q-2 -117 37 -188.5t111 -71.5q143 0 143 260q0 262 -143 262t-148 -262z" />
<glyph unicode="&#x26;" horiz-adv-x="1576" d="M102 403q0 244 279 412q-55 53 -90 141t-35 168q0 156 111 269q125 125 335 125q176 0 290 -95.5t114 -253.5q0 -236 -307 -391q168 -195 254 -284q117 137 116 249q0 72 -55 121h356q0 -299 -239 -573l264 -291h-383q-31 37 -98 111q-168 -129 -408 -129 q-252 0 -387 133q-117 115 -117 288zM393 442q0 -96 73 -164.5t185 -68.5h2q125 0 203 74q-129 131 -334 364q-129 -63 -129 -205zM545 1141q-2 -86 112 -215q182 94 183 219q0 63 -41 105t-107 42q-63 0 -104 -42.5t-43 -108.5z" />
<glyph unicode="'" horiz-adv-x="450" d="M102 1505h246q0 -335 -57 -497h-131q-57 162 -58 497z" />
<glyph unicode="(" horiz-adv-x="819" d="M225 756q2 532 252 893h234q-223 -362 -224 -895q0 -514 224 -887h-234q-254 365 -252 889z" />
<glyph unicode=")" horiz-adv-x="819" d="M109 -133q223 375 223 891q0 518 -223 891h233q254 -371 252 -891q-2 -524 -252 -891h-233z" />
<glyph unicode="*" horiz-adv-x="993" d="M61 975v223l342 -68l3 5l-234 278l197 113l123 -338h6l125 338l194 -111l-239 -280l4 -7l350 70v-223l-354 63l-3 -8l242 -270l-196 -115l-127 342l-5 -2l-127 -340l-190 115l236 280z" />
<glyph unicode="+" horiz-adv-x="1300" d="M61 635v223h461v467h256v-467h461v-223h-461v-485h-256v485h-461z" />
<glyph unicode="," horiz-adv-x="614" d="M41 -207q102 231 166 498h274q-121 -301 -260 -498h-180z" />
<glyph unicode="-" horiz-adv-x="1099" d="M82 631v227h977l-94 -227h-883z" />
<glyph unicode="." horiz-adv-x="614" d="M174 0v266h266v-266h-266z" />
<glyph unicode="/" horiz-adv-x="737" d="M20 -53l474 1601h223l-473 -1601h-224z" />
<glyph unicode="0" horiz-adv-x="1189" d="M61 752q0 346 129 546q141 219 410 220q268 0 404 -213q124 -197 124 -547q0 -356 -133 -559q-141 -215 -405 -215q-260 0 -400 217q-129 203 -129 551zM354 754q0 -242 70 -380t174 -138q100 0 168 135q70 143 70 383q0 250 -68 387q-63 131 -172 131q-111 0 -174 -131 q-68 -137 -68 -387z" />
<glyph unicode="1" horiz-adv-x="612" d="M82 1352l367 153v-1505h-365q27 23 52.5 85t25.5 130v924q0 168 -80 213z" />
<glyph unicode="2" horiz-adv-x="1058" d="M20 0v211l185 176q256 244 346 365q117 152 117 274q0 244 -283 244q-172 0 -313 -62v262q139 55 360 56q258 0 399 -133q133 -125 134 -338q0 -332 -408 -688l-131 -115v-6h571l-106 -246h-871z" />
<glyph unicode="3" horiz-adv-x="1003" d="M20 283q94 -45 328 -45q125 0 201 63.5t76 151.5q0 113 -72 159q-66 41 -205 41h-131v248h125q104 0 174 50t70 141q0 178 -234 178q-164 0 -260 -53v249q100 53 311 54q225 0 355 -107q123 -100 123 -260q0 -268 -252 -362v-5q131 -27 209 -110q84 -94 84 -242 q0 -186 -134 -313q-147 -137 -397 -137q-209 0 -258 30z" />
<glyph unicode="4" horiz-adv-x="1230" d="M61 352v230l537 913h375v-897h237l-106 -246h-131v-352h-283v352h-629zM360 598h330v352q0 119 10 279h-4q-33 -100 -135 -279z" />
<glyph unicode="5" horiz-adv-x="1019" d="M61 276q27 -16 119 -30q102 -16 205 -17q129 0 205 64.5t76 183.5q0 129 -78 193q-92 76 -309 75h-181v750h817v-246h-538v-266h69q209 0 345 -106q168 -133 167 -377q0 -223 -137 -367q-152 -160 -415 -160q-160 0 -232 33z" />
<glyph unicode="6" horiz-adv-x="1132" d="M61 631q0 424 220 659q205 219 530 219q76 0 133 -8v-252q-33 12 -125 13q-184 0 -301 -105q-96 -88 -131 -233q137 53 277 53q184 0 297 -113q120 -123 120 -346t-146.5 -379.5t-367.5 -156.5q-250 0 -385 192q-121 172 -121 457zM352 537q17 -304 228 -304 q100 0 157 78q51 72 51 189q0 231 -215 231q-98 0 -217 -47q-12 -12 -4 -147z" />
<glyph unicode="7" horiz-adv-x="1048" d="M41 1255l104 240h863v-215l-568 -1280h-323l569 1255h-645z" />
<glyph unicode="8" horiz-adv-x="1130" d="M61 393q0 258 236 379q-205 111 -205 332q0 186 137.5 301t345.5 115q223 0 349 -121q106 -104 106 -258q0 -223 -205 -334q244 -98 244 -377q0 -207 -138 -331t-376 -124q-244 0 -377 134q-117 115 -117 284zM365 428q0 -211 202 -211q86 0 140.5 52.5t56.5 133.5 q2 150 -223 254q-176 -88 -176 -229zM385 1116q0 -127 203 -207q45 12 97 75t52 130q0 74 -44 121t-130 47q-80 0 -129 -47t-49 -119z" />
<glyph unicode="9" horiz-adv-x="1132" d="M51 981q0 223 146.5 380t367.5 157q252 0 385 -193q121 -172 121 -457q0 -195 -55 -375t-146 -284q-188 -219 -512 -219q-109 0 -155 20l-115 277q84 -47 236 -47q205 0 319 118q84 88 105 217q-137 -53 -279 -53q-184 0 -297 115q-121 123 -121 344zM344 999 q0 -231 217 -231q92 0 217 49q8 63 4 146q-16 305 -227 305q-90 0 -147 -64q-64 -72 -64 -205z" />
<glyph unicode=":" horiz-adv-x="614" d="M174 0v266h266v-266h-266zM174 582v266h266v-266h-266z" />
<glyph unicode=";" horiz-adv-x="614" d="M41 -207q109 254 164 498h274q-125 -309 -258 -498h-180zM213 582v266h264v-266h-264z" />
<glyph unicode="&#x3c;" horiz-adv-x="1265" d="M102 653v191l1061 491v-233l-803 -352v-5l803 -350v-235z" />
<glyph unicode="=" horiz-adv-x="1300" d="M123 426v227h1071l-94 -227h-977zM123 840v227h1071l-94 -227h-977z" />
<glyph unicode="&#x3e;" horiz-adv-x="1060" d="M0 160v235l819 350v5l-819 352v233l1061 -485v-203z" />
<glyph unicode="?" horiz-adv-x="909" d="M102 1206v242q113 61 318 61q203 0 303 -106q84 -88 84 -242q0 -111 -62 -213q-35 -55 -124 -157q-113 -125 -115 -277l-2 -106h-256v122q0 197 130 348.5t130 239.5q0 156 -164 156q-139 0 -242 -68zM242 0v262h262v-262h-262z" />
<glyph unicode="@" horiz-adv-x="1697" d="M123 664q0 348 225 589q236 252 600 252q291 0 479.5 -180t188.5 -459q0 -238 -118 -387t-296 -149q-80 0 -134 47t-62 133h-5q-102 -170 -284 -170q-111 0 -179.5 78t-68.5 211q0 209 139 358q147 156 377 156q164 0 264 -56l-67 -409q-8 -55 -8 -92q0 -98 63 -99 q82 0 143 93q72 104 72 280q0 223 -135 363q-145 147 -393 147q-262 0 -443 -184q-190 -195 -190 -502q0 -272 160 -428q152 -152 405 -152q242 0 391 89l-57 -166q-135 -59 -379 -60q-287 0 -481 187q-207 195 -207 510zM690 655q0 -137 111 -137q61 0 117.5 67.5 t70.5 164.5l31 208q-31 10 -70 11q-109 0 -184.5 -92.5t-75.5 -221.5z" />
<glyph unicode="A" horiz-adv-x="1415" d="M10 0q57 37 115 209l436 1286h293l436 -1286q58 -168 115 -209h-338l-98 303h-523l-96 -303h-340zM514 530h385l-129 383q-41 121 -63 244h-2q-20 -113 -66 -248z" />
<glyph unicode="B" horiz-adv-x="1191" d="M53 0q35 20 58 90q18 59 18 123v1067q0 63 -18 123q-23 72 -58 92h563q487 0 488 -362q0 -111 -62.5 -202t-167.5 -132v-4q123 -27 193 -123q63 -90 63 -211q0 -188 -126 -311q-152 -150 -453 -150h-498zM416 246h143q133 0 204 56t71 153q0 119 -84 166q-68 38 -214 38 h-8h-112v-413zM416 887h104q158 0 223.5 49t65.5 151q0 166 -240 166h-153v-366z" />
<glyph unicode="C" horiz-adv-x="1294" d="M61 727q0 348 205 559q213 221 586 221q193 0 393 -63l2 -281q-203 88 -399 88q-215 0 -345 -138t-130 -363q0 -510 495 -510q236 0 385 47l-114 -273q-95 -32 -314 -32q-373 0 -581 233q-182 207 -183 512z" />
<glyph unicode="D" horiz-adv-x="1386" d="M53 0q37 23 58 88q20 57 20 121v1071q0 61 -20 123q-23 72 -58 92h455q817 0 817 -723q0 -375 -229 -577q-217 -195 -592 -195h-451zM418 246h114q221 0 347 121q137 129 137 385q0 240 -126 370.5t-355 130.5h-117v-1007z" />
<glyph unicode="E" horiz-adv-x="966" d="M53 1495h852v-244h-485v-360h428v-240h-428v-407h520l-102 -244h-783q27 23 51 82q27 68 27 133v1067q0 63 -20 123q-23 70 -60 90z" />
<glyph unicode="F" horiz-adv-x="956" d="M53 1495h852v-244h-487v-360h430v-240h-430v-651h-363q27 23 51 82q25 68 25 133v1067q0 63 -20 123q-20 68 -58 90z" />
<glyph unicode="G" horiz-adv-x="1417" d="M61 737q0 354 218.5 564t609.5 210q188 0 356 -67v-285q-162 96 -375 96q-227 0 -358 -129q-139 -135 -139 -389q0 -238 120.5 -368.5t346.5 -130.5h8q109 0 182 26v258q0 68 -24 133q-25 59 -52 84h361v-639q-221 -120 -503 -120h-5q-348 0 -549 208q-197 203 -197 549z " />
<glyph unicode="H" horiz-adv-x="1396" d="M53 1495h367v-596h567v596h287v-1495h-287v651h-567v-651h-365q27 23 52.5 85t25.5 130v1067q0 61 -20 123q-23 70 -60 90z" />
<glyph unicode="I" horiz-adv-x="542" d="M53 1495h367v-1495h-287v1282q0 61 -20 123q-23 70 -60 90z" />
<glyph unicode="J" horiz-adv-x="735" d="M0 248q66 -20 164 -21q90 0 130 44t40 161v850q0 61 -21 123q-23 70 -59 90h369v-1073q0 -438 -398 -438q-61 0 -123 16z" />
<glyph unicode="K" horiz-adv-x="1191" d="M53 0q37 23 60 90q20 59 20 123v1069q0 61 -20 123q-23 70 -60 90h363v-655l428 655h332l-476 -692q23 -16 66 -86l426 -717h-336l-315 582q-38 71 -83 71h-1h-41v-653h-363z" />
<glyph unicode="L" horiz-adv-x="907" d="M43 1495h367v-1251h497l-102 -244h-760q27 23 51 82q25 68 25 133v1067q0 63 -21 123q-20 68 -57 90z" />
<glyph unicode="M" horiz-adv-x="1667" d="M53 1495h363l332 -569q35 -57 88 -168h2q12 33 92 170l332 567h282v-1495h-287v1004h-2q-23 -68 -81 -166l-269 -441h-137l-268 441q-47 78 -76 166h-4v-1004h-365q29 25 53.5 87.5t24.5 129.5v1067q0 61 -20 121q-23 70 -60 90z" />
<glyph unicode="N" horiz-adv-x="1466" d="M53 0q37 23 58 90q20 59 20 123v1069q0 61 -20 123q-23 70 -58 90h451l393 -737q92 -174 176 -350q-16 199 -16 624v463h286v-1495h-374l-416 780q-61 117 -147 322q12 -193 12 -565v-537h-365z" />
<glyph unicode="O" horiz-adv-x="1544" d="M61 748q0 360 222 575q198 193 487 193t492 -195q221 -215 221 -576q0 -360 -221 -575q-203 -195 -492 -195q-287 0 -487 197q-221 215 -222 576zM358 743q2 -240 134 -385q119 -131 280 -131q164 0 283 131q131 145 131 387t-131 388q-119 131 -283 131 q-166 0 -285 -131q-129 -146 -129 -383v-7z" />
<glyph unicode="P" horiz-adv-x="1110" d="M53 1495h436q272 0 421 -121t149 -340q0 -225 -150 -366q-158 -152 -432 -152h-57v-516h-365q27 23 52.5 85t25.5 130v1067q0 63 -20 123q-23 70 -60 90zM420 756h43q133 0 216 70.5t83 189.5q0 244 -281 244h-61v-504z" />
<glyph unicode="Q" horiz-adv-x="1556" d="M61 748q0 362 222 575q199 195 487 195q289 0 492 -195q221 -215 221 -575q0 -207 -111 -379q-76 -121 -162 -176q276 14 428 51l-100 -248q-389 -33 -510 -33q-117 0 -295 14q-285 25 -467 213q-205 211 -205 558zM358 743q2 -240 134 -385q119 -131 280 -131 q164 0 283 131q131 145 131 387t-131 388q-119 131 -283 131q-166 0 -285 -131q-129 -146 -129 -383v-7z" />
<glyph unicode="R" horiz-adv-x="1163" d="M53 1495h471q539 0 539 -418q0 -158 -79 -267.5t-196 -145.5q35 -17 76 -91l299 -573h-354l-254 539q-35 73 -94 73h-2h-39v-612h-365q29 25 53.5 87.5t24.5 129.5v1067q0 61 -20 121q-23 70 -60 90zM420 821h67q127 0 202 61.5t75 166.5q0 215 -268 215h-76v-443z" />
<glyph unicode="S" horiz-adv-x="1003" d="M61 276q109 -43 326 -43q256 0 256 189q0 86 -59 139q-43 37 -146 78q-180 72 -243 127q-121 106 -121 313q0 201 148 320q137 111 361 111q17 0 35 -1q100 -2 250 -32v-252q-133 45 -268 49h-9q-109 0 -169 -45q-62 -47 -62 -129q0 -90 78 -146q39 -29 178 -86 q150 -61 215 -131q100 -104 101 -284q0 -215 -139 -338q-148 -129 -416 -129q-164 0 -205 26z" />
<glyph unicode="T" horiz-adv-x="1142" d="M41 1251v244h1081l-98 -244h-328v-1251h-280v1251h-375z" />
<glyph unicode="U" horiz-adv-x="1400" d="M43 1495h360v-954q0 -158 62 -234q72 -86 237 -86q299 0 299 318v956h287v-969q0 -246 -143 -387q-155 -155 -459 -155h-4q-565 0 -565 538v756q0 68 -25 135q-23 59 -49 82z" />
<glyph unicode="V" horiz-adv-x="1374" d="M-25 1495h365l281 -881q31 -92 79 -286h5q20 96 79 284l277 883h303l-506 -1495h-321l-431 1282q-57 168 -131 213z" />
<glyph unicode="W" horiz-adv-x="1882" d="M-25 1495h361l199 -821q33 -133 49 -283h4q20 125 59 238l219 624h174l211 -626q25 -70 68 -236h2q23 170 49 283l195 821h307l-371 -1495h-319l-185 608q-31 100 -45 189q-14 -100 -47 -191l-223 -606h-279l-315 1282q-39 160 -113 213z" />
<glyph unicode="X" horiz-adv-x="1341" d="M20 1495h369l295 -516l291 516h317l-426 -727l475 -768h-352l-309 553l-311 -553h-328l459 766l-307 518q-98 168 -173 211z" />
<glyph unicode="Y" horiz-adv-x="1220" d="M-25 1495h344l193 -428q57 -127 98 -248h2q35 100 103 246l196 430h299l-460 -963v-532h-281v530l-356 758q-39 84 -58 115q-41 68 -80 92z" />
<glyph unicode="Z" horiz-adv-x="1087" d="M72 0v217l553 899q59 94 94 141q-102 -4 -223 -4h-392v242h932v-229l-551 -901q-39 -66 -84 -123q18 2 265 2h411l-98 -244h-907z" />
<glyph unicode="[" horiz-adv-x="819" d="M246 -215v1925h432v-199h-197v-1523h197v-203h-432z" />
<glyph unicode="\" horiz-adv-x="706" d="M20 1548h224l442 -1601h-221z" />
<glyph unicode="]" horiz-adv-x="819" d="M141 -12h197v1523h-197v199h432v-1925h-432v203z" />
<glyph unicode="^" horiz-adv-x="1335" d="M102 383l465 1044h203l463 -1044h-240l-323 786h-6l-324 -786h-238z" />
<glyph unicode="_" horiz-adv-x="1054" d="M0 -143h1110l-55 -131h-1055v131z" />
<glyph unicode="`" d="M283 1851h286l76 -125q29 -47 41 -65q30 -44 57 -64h-186z" />
<glyph unicode="{" horiz-adv-x="819" d="M102 707v188q104 4 150.5 49t46.5 162v170q0 221 84 327.5t272 106.5h41v-199q-96 0 -130 -46t-34 -185v-168q0 -279 -180 -309v-2q180 -31 180 -318v-262q0 -141 34 -187t130 -46v-203h-41q-190 0 -273 103.5t-83 334.5v264q0 117 -49 168q-45 45 -148 52z" />
<glyph unicode="|" horiz-adv-x="727" d="M246 -236v1967h235v-1967h-235z" />
<glyph unicode="}" horiz-adv-x="819" d="M102 -12q96 0 130 46t34 187v262q0 287 180 318v2q-180 31 -180 309v168q0 139 -33.5 185t-130.5 46v199h41q188 0 272.5 -106.5t84.5 -327.5v-170q0 -117 49 -164q43 -43 147 -47v-188q-102 -6 -147 -52q-49 -51 -49 -168v-264q0 -231 -83.5 -334.5t-273.5 -103.5h-41 v203z" />
<glyph unicode="~" horiz-adv-x="1171" d="M102 819q127 115 285 115q98 0 216 -55.5t183 -55.5q104 0 203 92l80 -180q-115 -131 -289 -131q-86 0 -201.5 55.5t-211.5 55.5q-106 0 -189 -82z" />
<glyph unicode="&#xa3;" horiz-adv-x="1126" d="M82 0v186q96 41 168 129q80 98 80 207q0 43 -6 92h-218v236h177q-16 92 -17 186q0 215 138.5 347.5t359.5 132.5q162 0 250 -37v-248q-94 41 -213 41q-113 0 -179.5 -75t-66.5 -175q0 -86 18 -172h304v-236h-275q4 -104 -22 -182q-35 -106 -113 -178v-4h639l-105 -250 h-919z" />
<glyph unicode="&#xa4;" horiz-adv-x="1591" d="M82 549v135h237v23q-2 16 -2 22q0 25 5 74h-240v135h258q59 262 252 414q203 158 516 157q201 0 395 -63v-281q-203 88 -399 88q-166 0 -282.5 -84t-164.5 -231h652l-54 -135h-624v-25q-2 -18 -2 -26q0 -23 4 -68h676l-54 -135h-600q82 -307 469 -307q235 0 385 47 l-114 -273q-121 -33 -314 -32q-315 0 -514 170q-178 150 -229 395h-256z" />
<glyph unicode="&#xa8;" d="M193 1616v215h247v-215h-247zM586 1616v215h248v-215h-248z" />
<glyph unicode="&#xad;" horiz-adv-x="1099" d="M82 631v227h977l-94 -227h-883z" />
<glyph unicode="&#xaf;" d="M193 1640v162h641v-162h-641z" />
<glyph unicode="&#xb4;" d="M283 1597q37 27 98 129l76 125h286l-274 -254h-186z" />
<glyph unicode="&#xb7;" horiz-adv-x="614" d="M174 635v266h266v-266h-266z" />
<glyph unicode="&#xb8;" d="M287 -309q82 -35 174 -35t92 70q0 66 -92 65q-43 0 -82 -14l-43 49l139 174h119l-94 -106q33 4 51 4q86 0 137 -48.5t51 -115.5q0 -76 -61 -127q-72 -57 -195 -58q-92 0 -172 27z" />
<glyph unicode="&#xc0;" horiz-adv-x="1415" d="M10 0q57 37 115 209l436 1286h293l436 -1286q58 -168 115 -209h-338l-98 303h-523l-96 -303h-340zM340 1851h286l76 -125q29 -47 41 -65q30 -44 57 -64h-186zM514 530h385l-129 383q-41 121 -63 244h-2q-20 -113 -66 -248z" />
<glyph unicode="&#xc1;" horiz-adv-x="1415" d="M10 0q57 37 115 209l436 1286h293l436 -1286q58 -168 115 -209h-338l-98 303h-523l-96 -303h-340zM514 530h385l-129 383q-41 121 -63 244h-2q-20 -113 -66 -248zM613 1597q37 27 98 129l76 125h286l-274 -254h-186z" />
<glyph unicode="&#xc2;" horiz-adv-x="1415" d="M10 0q57 37 115 209l436 1286h293l436 -1286q58 -168 115 -209h-338l-98 303h-523l-96 -303h-340zM390 1597q35 25 110 129l98 136h218l98 -136q35 -49 110 -129h-186l-131 136l-131 -136h-186zM514 530h385l-129 383q-41 121 -63 244h-2q-20 -113 -66 -248z" />
<glyph unicode="&#xc3;" horiz-adv-x="1415" d="M10 0q57 37 115 209l436 1286h293l436 -1286q58 -168 115 -209h-338l-98 303h-523l-96 -303h-340zM369 1597q6 90 51 162q59 92 156 92q61 0 144 -47t108 -47q61 0 78 90h141q-4 -88 -49 -161q-59 -92 -156 -93q-61 0 -144 47.5t-108 47.5q-61 0 -78 -91h-143zM514 530 h385l-129 383q-41 121 -63 244h-2q-20 -113 -66 -248z" />
<glyph unicode="&#xc4;" horiz-adv-x="1415" d="M10 0q57 37 115 209l436 1286h293l436 -1286q58 -168 115 -209h-338l-98 303h-523l-96 -303h-340zM388 1616v215h247v-215h-247zM514 530h385l-129 383q-41 121 -63 244h-2q-20 -113 -66 -248zM781 1616v215h248v-215h-248z" />
<glyph unicode="&#xc5;" horiz-adv-x="1415" d="M10 0q57 37 115 209l436 1286h293l436 -1286q58 -168 115 -209h-338l-98 303h-523l-96 -303h-340zM506 1788q0 86 60.5 146.5t146.5 60.5t146.5 -60.5t60.5 -146.5t-60.5 -146.5t-146.5 -60.5t-146.5 60.5t-60.5 146.5zM514 530h385l-129 383q-41 121 -63 244h-2 q-20 -113 -66 -248zM613 1788q0 -41 29.5 -70.5t70.5 -29.5t70.5 29.5t29.5 70.5t-29.5 70.5t-70.5 29.5t-70.5 -29.5t-29.5 -70.5z" />
<glyph unicode="&#xc6;" horiz-adv-x="1562" d="M10 0q53 35 115 209l461 1286h915v-244h-485v-360h428v-240h-428v-407h520l-102 -244h-705v401h-252l-127 -401h-340zM547 629h182v528z" />
<glyph unicode="&#xc7;" horiz-adv-x="1294" d="M61 727q0 348 205 559q213 221 586 221q193 0 393 -63l2 -281q-203 88 -399 88q-215 0 -345 -138t-130 -363q0 -510 495 -510q236 0 385 47l-114 -273q-70 -25 -273 -32l-78 -88q33 4 52 4q86 0 137 -48.5t51 -115.5q0 -76 -61 -127q-72 -57 -195 -58q-92 0 -172 27 l-25 115q82 -35 175 -35q92 0 92 70q0 66 -92 65q-43 0 -82 -14l-43 49l125 158q-336 25 -523 252q-166 201 -166 491z" />
<glyph unicode="&#xc8;" horiz-adv-x="966" d="M53 1495h852v-244h-485v-360h428v-240h-428v-407h520l-102 -244h-783q27 23 51 82q27 68 27 133v1067q0 63 -20 123q-23 70 -60 90zM158 1851h286l76 -125q29 -47 41 -65q30 -44 57 -64h-186z" />
<glyph unicode="&#xc9;" horiz-adv-x="966" d="M53 1495h852v-244h-485v-360h428v-240h-428v-407h520l-102 -244h-783q27 23 51 82q27 68 27 133v1067q0 63 -20 123q-23 70 -60 90zM402 1597q37 27 98 129l76 125h286l-274 -254h-186z" />
<glyph unicode="&#xca;" horiz-adv-x="966" d="M53 1495h852v-244h-485v-360h428v-240h-428v-407h520l-102 -244h-783q27 23 51 82q27 68 27 133v1067q0 63 -20 123q-23 70 -60 90zM195 1597q35 25 110 129l98 136h218l98 -136q35 -49 110 -129h-186l-131 136l-131 -136h-186z" />
<glyph unicode="&#xcb;" horiz-adv-x="966" d="M53 1495h852v-244h-485v-360h428v-240h-428v-407h520l-102 -244h-783q27 23 51 82q27 68 27 133v1067q0 63 -20 123q-23 70 -60 90zM175 1616v215h247v-215h-247zM568 1616v215h248v-215h-248z" />
<glyph unicode="&#xcc;" horiz-adv-x="542" d="M-51 1851h287l75 -125q29 -47 41 -65q31 -44 58 -64h-187zM53 1495h367v-1495h-287v1282q0 61 -20 123q-23 70 -60 90z" />
<glyph unicode="&#xcd;" horiz-adv-x="542" d="M53 1495h367v-1495h-287v1282q0 61 -20 123q-23 70 -60 90zM133 1597q37 27 98 129l76 125h287l-275 -254h-186z" />
<glyph unicode="&#xce;" horiz-adv-x="542" d="M-43 1597q35 25 111 129l98 136h217l98 -136q35 -49 111 -129h-186l-132 136l-131 -136h-186zM53 1495h367v-1495h-287v1282q0 61 -20 123q-23 70 -60 90z" />
<glyph unicode="&#xcf;" horiz-adv-x="542" d="M-49 1616v215h248v-215h-248zM53 1495h367v-1495h-287v1282q0 61 -20 123q-23 70 -60 90zM344 1616v215h248v-215h-248z" />
<glyph unicode="&#xd1;" horiz-adv-x="1466" d="M53 0q37 23 58 90q20 59 20 123v1069q0 61 -20 123q-23 70 -58 90h451l393 -737q92 -174 176 -350q-16 199 -16 624v463h286v-1495h-374l-416 780q-61 117 -147 322q12 -193 12 -565v-537h-365zM407 1597q6 90 51 162q59 92 156 92q61 0 144 -47t108 -47q61 0 78 90h141 q-4 -88 -49 -161q-59 -92 -156 -93q-61 0 -144 47.5t-108 47.5q-61 0 -78 -91h-143z" />
<glyph unicode="&#xd2;" horiz-adv-x="1544" d="M61 748q0 360 222 575q198 193 487 193t492 -195q221 -215 221 -576q0 -360 -221 -575q-203 -195 -492 -195q-287 0 -487 197q-221 215 -222 576zM358 743q2 -240 134 -385q119 -131 280 -131q164 0 283 131q131 145 131 387t-131 388q-119 131 -283 131 q-166 0 -285 -131q-131 -148 -129 -390zM400 1851h286l76 -125q29 -47 41 -65q30 -44 57 -64h-186z" />
<glyph unicode="&#xd3;" horiz-adv-x="1544" d="M61 748q0 360 222 575q198 193 487 193t492 -195q221 -215 221 -576q0 -360 -221 -575q-203 -195 -492 -195q-287 0 -487 197q-221 215 -222 576zM358 743q2 -240 134 -385q119 -131 280 -131q164 0 283 131q131 145 131 387t-131 388q-119 131 -283 131 q-166 0 -285 -131q-131 -148 -129 -390zM674 1597q37 27 98 129l76 125h286l-274 -254h-186z" />
<glyph unicode="&#xd4;" horiz-adv-x="1544" d="M61 748q0 360 222 575q198 193 487 193t492 -195q221 -215 221 -576q0 -360 -221 -575q-203 -195 -492 -195q-287 0 -487 197q-221 215 -222 576zM358 743q2 -240 134 -385q119 -131 280 -131q164 0 283 131q131 145 131 387t-131 388q-119 131 -283 131 q-166 0 -285 -131q-131 -148 -129 -390zM459 1597q35 25 110 129l98 136h218l98 -136q35 -49 110 -129h-186l-131 136l-131 -136h-186z" />
<glyph unicode="&#xd5;" horiz-adv-x="1544" d="M61 748q0 360 222 575q198 193 487 193t492 -195q221 -215 221 -576q0 -360 -221 -575q-203 -195 -492 -195q-287 0 -487 197q-221 215 -222 576zM358 743q2 -240 134 -385q119 -131 280 -131q164 0 283 131q131 145 131 387t-131 388q-119 131 -283 131 q-166 0 -285 -131q-131 -148 -129 -390zM436 1597q6 90 51 162q59 92 156 92q61 0 144 -47t108 -47q61 0 78 90h141q-4 -88 -49 -161q-59 -92 -156 -93q-61 0 -144 47.5t-108 47.5q-61 0 -78 -91h-143z" />
<glyph unicode="&#xd6;" horiz-adv-x="1544" d="M61 748q0 360 222 575q198 193 487 193t492 -195q221 -215 221 -576q0 -360 -221 -575q-203 -195 -492 -195q-287 0 -487 197q-221 215 -222 576zM358 743q2 -240 134 -385q119 -131 280 -131q164 0 283 131q131 145 131 387t-131 388q-119 131 -283 131 q-166 0 -285 -131q-131 -148 -129 -390zM455 1616v215h247v-215h-247zM848 1616v215h248v-215h-248z" />
<glyph unicode="&#xd8;" horiz-adv-x="1544" d="M61 0l177 217q-176 211 -177 531q0 360 222 575q199 193 487 193q236 0 420 -136l92 115h201l-178 -221q178 -209 178 -529q0 -360 -221 -575q-203 -195 -492 -195q-230 1 -416 134l-88 -109h-205zM358 743q2 -171 70 -294l588 720q-106 94 -244 95q-166 0 -285 -131 q-131 -147 -129 -390zM528 322q109 -94 244 -95q164 0 283 131q131 145 131 387q0 172 -70 302z" />
<glyph unicode="&#xd9;" horiz-adv-x="1400" d="M43 1495h360v-954q0 -158 62 -234q72 -86 237 -86q299 0 299 318v956h287v-969q0 -246 -143 -387q-156 -156 -463 -155q-565 0 -565 538v756q0 68 -25 135q-23 59 -49 82zM328 1851h286l76 -125q29 -47 41 -65q30 -44 57 -64h-186z" />
<glyph unicode="&#xda;" horiz-adv-x="1400" d="M43 1495h360v-954q0 -158 62 -234q72 -86 237 -86q299 0 299 318v956h287v-969q0 -246 -143 -387q-156 -156 -463 -155q-565 0 -565 538v756q0 68 -25 135q-23 59 -49 82zM602 1597q37 27 98 129l76 125h286l-274 -254h-186z" />
<glyph unicode="&#xdb;" horiz-adv-x="1400" d="M43 1495h360v-954q0 -158 62 -234q72 -86 237 -86q299 0 299 318v956h287v-969q0 -246 -143 -387q-156 -156 -463 -155q-565 0 -565 538v756q0 68 -25 135q-23 59 -49 82zM369 1597q35 25 110 129l98 136h218l98 -136q35 -49 110 -129h-186l-131 136l-131 -136h-186z" />
<glyph unicode="&#xdc;" horiz-adv-x="1400" d="M43 1495h360v-954q0 -158 62 -234q72 -86 237 -86q299 0 299 318v956h287v-969q0 -246 -143 -387q-156 -156 -463 -155q-565 0 -565 538v756q0 68 -25 135q-23 59 -49 82zM379 1616v215h247v-215h-247zM772 1616v215h248v-215h-248z" />
<glyph unicode="&#xdd;" horiz-adv-x="1220" d="M-25 1495h344l193 -428q57 -127 98 -248h2q35 100 103 246l196 430h299l-460 -963v-532h-281v530l-356 758q-39 84 -58 115q-41 68 -80 92zM520 1597q37 27 98 129l76 125h287l-274 -254h-187z" />
<glyph unicode="&#xea;" horiz-adv-x="2048" />
<glyph unicode="&#x152;" horiz-adv-x="1693" d="M61 723q0 375 230 577q217 195 592 195h749v-244h-485v-360h428v-240h-428v-407h520l-102 -244h-686q-817 0 -818 723zM371 743q0 -240 126.5 -370.5t362.5 -130.5v1007q-225 0 -352 -121q-137 -129 -137 -385z" />
<glyph unicode="&#x178;" horiz-adv-x="1220" d="M-25 1495h344l193 -428q57 -127 98 -248h2q35 100 103 246l196 430h299l-460 -963v-532h-281v530l-356 758q-39 84 -58 115q-41 68 -80 92zM283 1616v215h247v-215h-247zM676 1616v215h248v-215h-248z" />
<glyph unicode="&#x2c6;" d="M195 1597q35 25 110 129l98 136h218l98 -136q35 -49 110 -129h-186l-131 136l-131 -136h-186z" />
<glyph unicode="&#x2dc;" d="M174 1597q6 90 51 162q59 92 156 92q61 0 144 -47t108 -47q61 0 78 90h141q-4 -88 -49 -161q-59 -92 -156 -93q-61 0 -144 47.5t-108 47.5q-61 0 -78 -91h-143z" />
<glyph unicode="&#x2000;" horiz-adv-x="997" />
<glyph unicode="&#x2001;" horiz-adv-x="1995" />
<glyph unicode="&#x2002;" horiz-adv-x="997" />
<glyph unicode="&#x2003;" horiz-adv-x="1995" />
<glyph unicode="&#x2004;" horiz-adv-x="665" />
<glyph unicode="&#x2005;" horiz-adv-x="498" />
<glyph unicode="&#x2006;" horiz-adv-x="332" />
<glyph unicode="&#x2007;" horiz-adv-x="332" />
<glyph unicode="&#x2008;" horiz-adv-x="249" />
<glyph unicode="&#x2009;" horiz-adv-x="399" />
<glyph unicode="&#x200a;" horiz-adv-x="110" />
<glyph unicode="&#x2010;" horiz-adv-x="1099" d="M82 631v227h977l-94 -227h-883z" />
<glyph unicode="&#x2011;" horiz-adv-x="1099" d="M82 631v227h977l-94 -227h-883z" />
<glyph unicode="&#x2012;" horiz-adv-x="1099" d="M82 631v227h977l-94 -227h-883z" />
<glyph unicode="&#x2013;" horiz-adv-x="1153" d="M82 631v227h1071l-94 -227h-977z" />
<glyph unicode="&#x2014;" horiz-adv-x="2177" d="M82 631v227h2095l-94 -227h-2001z" />
<glyph unicode="&#x2018;" horiz-adv-x="614" d="M102 1008q125 311 260 497h179q-109 -258 -164 -497h-275z" />
<glyph unicode="&#x2019;" horiz-adv-x="614" d="M74 1008q109 254 164 497h274q-117 -296 -258 -497h-180z" />
<glyph unicode="&#x201c;" horiz-adv-x="974" d="M74 1008q125 311 260 497h178q-109 -258 -164 -497h-274zM434 1008q125 311 260 497h178q-109 -258 -163 -497h-275z" />
<glyph unicode="&#x201d;" horiz-adv-x="974" d="M74 1008q109 254 164 497h274q-117 -297 -258 -497h-180zM434 1008q109 254 164 497h274q-117 -296 -258 -497h-180z" />
<glyph unicode="&#x202f;" horiz-adv-x="399" />
<glyph unicode="&#x205f;" horiz-adv-x="498" />
<glyph unicode="&#xe000;" d="M0 0z" />
</font>
</defs>
</svg>
